<svg width="16" height="17" viewBox="0 0 16 17" fill="none" xmlns="http://www.w3.org/2000/svg">
<path d="M4.33503 5.15077C4.52332 3.26787 6.10774 1.83398 8.00004 1.83398V1.83398C9.89234 1.83398 11.4768 3.26787 11.6651 5.15077L11.8561 7.06154C11.9506 8.0065 12.2755 8.91386 12.8023 9.70404L13.3764 10.5652C13.5948 10.8928 13.704 11.0566 13.7463 11.1826C13.9293 11.7283 13.6151 12.3155 13.0595 12.4659C12.9311 12.5007 12.7343 12.5007 12.3406 12.5007H3.65952C3.2658 12.5007 3.06893 12.5007 2.94059 12.4659C2.38501 12.3155 2.07076 11.7283 2.25381 11.1826C2.29609 11.0566 2.40529 10.8928 2.62369 10.5652L3.19778 9.70404C3.72457 8.91386 4.04946 8.0065 4.14395 7.06154L4.33503 5.15077Z" fill="#FF6600"/>
<path d="M6.71214 14.2529C6.78811 14.3238 6.9555 14.3864 7.18836 14.4311C7.42122 14.4758 7.70653 14.5 8.00004 14.5C8.29355 14.5 8.57886 14.4758 8.81172 14.4311C9.04458 14.3864 9.21198 14.3238 9.28794 14.2529" stroke="#FF6600" stroke-width="2" stroke-linecap="round"/>
</svg>
