<svg width="45" height="44" viewBox="0 0 45 44" fill="none" xmlns="http://www.w3.org/2000/svg">
<rect x="0.5" width="44" height="44" rx="22" fill="#FFF4EC"/>
<path d="M13.5 19.8541C13.5 18.8301 14.3301 18 15.3541 18V18C16.0564 18 16.6984 17.6032 17.0125 16.9751L17.8333 15.3333C17.9433 15.1134 17.9983 15.0035 18.0606 14.9078C18.3859 14.4088 18.9167 14.0808 19.5085 14.013C19.6219 14 19.7448 14 19.9907 14H25.0093C25.2552 14 25.3781 14 25.4915 14.013C26.0833 14.0808 26.6141 14.4088 26.9394 14.9078C27.0017 15.0035 27.0567 15.1134 27.1667 15.3333L27.9875 16.9751C28.3016 17.6032 28.9436 18 29.6459 18V18C30.6699 18 31.5 18.8301 31.5 19.8541V24.8571C31.5 26.8619 31.5 27.8643 31.0402 28.5961C30.8004 28.9777 30.4777 29.3004 30.0961 29.5402C29.3643 30 28.3619 30 26.3571 30H18.6429C16.6381 30 15.6357 30 14.9039 29.5402C14.5223 29.3004 14.1996 28.9777 13.9598 28.5961C13.5 27.8643 13.5 26.8619 13.5 24.8571V19.8541Z" stroke="#FF6600" stroke-width="2"/>
<circle cx="22.5" cy="23" r="3" stroke="#FF6600" stroke-width="2"/>
</svg>
