<svg width="16" height="16" viewBox="0 0 16 16" fill="none" xmlns="http://www.w3.org/2000/svg">
<rect width="16" height="16" rx="4" fill="#FF6600"/>
<path d="M12.5158 4.66286C12.1426 4.35003 11.4698 4.27764 11.1067 4.66286C9.65545 6.20292 8.20415 7.74298 6.75285 9.28304C6.13198 8.59169 5.51111 7.90034 4.89025 7.209C4.55837 6.83945 3.82071 6.8713 3.48119 7.209C3.08644 7.60164 3.12717 8.10137 3.48119 8.49557C4.33125 9.44212 5.18131 10.3887 6.03136 11.3352C6.3557 11.6964 7.11446 11.6811 7.44042 11.3352C8.92192 9.76311 10.4034 8.19101 11.8849 6.6189C12.0952 6.39574 12.3055 6.17259 12.5158 5.94942C12.8554 5.58901 12.9326 5.0122 12.5158 4.66286Z" fill="white"/>
</svg>
