<svg width="20" height="21" viewBox="0 0 20 21" fill="none" xmlns="http://www.w3.org/2000/svg">
<rect y="0.5" width="20" height="20" rx="10" fill="#FF6600"/>
<path d="M15.6445 6.32808C15.178 5.93705 14.337 5.84656 13.8832 6.32808C12.0691 8.25316 10.2549 10.1782 8.44082 12.1033C7.66474 11.2391 6.88865 10.3749 6.11256 9.51076C5.69772 9.04883 4.77564 9.08864 4.35125 9.51076C3.85781 10.0016 3.90872 10.6262 4.35125 11.119C5.41382 12.3022 6.47639 13.4853 7.53895 14.6685C7.94438 15.12 8.89283 15.1009 9.30028 14.6685C11.1521 12.7034 13.004 10.7383 14.8559 8.77314C15.1188 8.49419 15.3816 8.21524 15.6445 7.93629C16.0691 7.48577 16.1655 6.76476 15.6445 6.32808Z" fill="white"/>
</svg>
