<svg width="16" height="17" viewBox="0 0 16 17" fill="none" xmlns="http://www.w3.org/2000/svg">
<path d="M3.97648 2.59086C3.52434 2.71202 3.11204 2.95005 2.78105 3.28105C2.45005 3.61204 2.21202 4.02433 2.09086 4.47648" stroke="#FF6600" stroke-width="2" stroke-linecap="round"/>
<path d="M12.0235 2.59086C12.4757 2.71202 12.888 2.95005 13.219 3.28105C13.5499 3.61204 13.788 4.02433 13.9091 4.47648" stroke="#FF6600" stroke-width="2" stroke-linecap="round"/>
<path fill-rule="evenodd" clip-rule="evenodd" d="M7.99996 13.8327C10.9455 13.8327 13.3333 11.4449 13.3333 8.49935C13.3333 5.55383 10.9455 3.16602 7.99996 3.16602C5.05444 3.16602 2.66663 5.55383 2.66663 8.49935C2.66663 11.4449 5.05444 13.8327 7.99996 13.8327ZM8.99996 5.83268C8.99996 5.2804 8.55224 4.83268 7.99996 4.83268C7.44767 4.83268 6.99996 5.2804 6.99996 5.83268V8.24935C6.99996 8.9397 7.5596 9.49935 8.24996 9.49935H9.99996C10.5522 9.49935 11 9.05163 11 8.49935C11 7.94706 10.5522 7.49935 9.99996 7.49935H8.99996V5.83268Z" fill="#FF6600"/>
</svg>
