<svg width="44" height="44" viewBox="0 0 44 44" fill="none" xmlns="http://www.w3.org/2000/svg">
<rect width="44" height="44" rx="22" fill="#FFF4EC"/>
<path d="M25 13H19C16.7909 13 15 14.7909 15 17V25" stroke="#FF6600" stroke-width="2"/>
<path d="M19 21.5C19 20.304 19.0015 19.4906 19.0712 18.8723C19.1386 18.2741 19.2592 17.9833 19.4133 17.7825C19.5197 17.6438 19.6438 17.5197 19.7825 17.4133C19.9833 17.2592 20.2741 17.1386 20.8723 17.0712C21.4906 17.0015 22.304 17 23.5 17C24.696 17 25.5094 17.0015 26.1277 17.0712C26.7259 17.1386 27.0167 17.2592 27.2175 17.4133C27.3562 17.5197 27.4803 17.6438 27.5867 17.7825C27.7408 17.9833 27.8614 18.2741 27.9288 18.8723C27.9985 19.4906 28 20.304 28 21.5V25.5C28 26.696 27.9985 27.5094 27.9288 28.1277C27.8614 28.7259 27.7408 29.0167 27.5867 29.2175C27.4803 29.3562 27.3562 29.4803 27.2175 29.5867C27.0167 29.7408 26.7259 29.8614 26.1277 29.9288C25.5094 29.9985 24.696 30 23.5 30C22.304 30 21.4906 29.9985 20.8723 29.9288C20.2741 29.8614 19.9833 29.7408 19.7825 29.5867C19.6438 29.4803 19.5197 29.3562 19.4133 29.2175C19.2592 29.0167 19.1386 28.7259 19.0712 28.1277C19.0015 27.5094 19 26.696 19 25.5V21.5Z" stroke="#FF6600" stroke-width="2"/>
</svg>
