<svg width="12" height="12" viewBox="0 0 12 12" fill="none" xmlns="http://www.w3.org/2000/svg">
<path d="M4.83322 8.50003C4.57718 8.4971 4.36283 8.70685 4.35989 8.96266C4.35696 9.21848 4.56661 9.43292 4.82295 9.43586C5.07899 9.43879 5.29334 9.22904 5.29627 8.97322C5.29921 8.71741 5.08956 8.50296 4.83322 8.50003Z" fill="black"/>
<path d="M7.17382 8.50001C6.91778 8.49854 6.7046 8.70918 6.70313 8.96528C6.70166 9.22109 6.91249 9.43437 7.16853 9.43583C7.42458 9.4373 7.63775 9.22667 7.63922 8.97056C7.64069 8.71475 7.42986 8.50147 7.17382 8.50001Z" fill="black"/>
<path d="M10.9975 4.2517C10.9924 3.85517 10.8573 3.51047 10.5806 3.22225C10.4727 3.10979 10.3452 3.02398 10.2084 2.94013C10.2395 2.91202 10.2627 2.89002 10.2869 2.86875C10.5874 2.60521 10.7939 2.28227 10.9109 1.89968C11.0009 1.60534 11.0007 1.30391 10.998 1.00151H10.4125C10.3586 1.08903 10.3853 1.18583 10.3848 1.27775C10.3829 1.65008 10.275 1.98451 10.0261 2.26369C9.76992 2.55143 9.45525 2.74505 9.06008 2.74602C7.01987 2.75067 4.97967 2.74822 2.9397 2.74798C2.88758 2.74798 2.83522 2.74871 2.78408 2.73722C2.28614 2.62452 1.93183 2.3363 1.72776 1.8679C1.63233 1.64886 1.61007 1.41661 1.61545 1.18021C1.61667 1.12007 1.63038 1.05553 1.58731 1.00151C1.40967 1.00151 1.23227 1.00346 1.05487 1.00004C1.0096 0.999307 0.999082 1.00835 1.00006 1.05456C1.00373 1.21884 1.00153 1.38336 1.00153 1.54789C1.01719 1.73613 1.06001 1.91777 1.13023 2.09354C1.25233 2.39815 1.43928 2.65679 1.68225 2.87535C1.73755 2.92522 1.73192 2.95015 1.67002 2.9878C1.51855 3.07997 1.3923 3.20293 1.28463 3.34277C1.12975 3.54445 1.03211 3.77181 1.00153 4.02605V5.13813C1.29442 5.13813 1.58707 5.1374 1.87996 5.13838C2.10458 5.13936 2.31819 5.09218 2.52178 4.99879C2.64167 4.94378 2.74885 4.86751 2.86409 4.77852C2.86727 4.81568 2.86972 4.83769 2.8707 4.85969C2.89811 5.39556 2.92502 5.93119 2.95267 6.46706C2.99818 7.34372 3.03758 8.22062 3.09141 9.09679C3.15429 10.1192 4.00336 10.9528 5.02787 10.9851C5.67482 11.0053 6.32325 11.0046 6.9702 10.9851C7.9355 10.9562 8.7552 10.2084 8.89149 9.25325C8.94581 8.87286 8.94312 8.48782 8.96392 8.10499C9.01604 7.15059 9.06106 6.1957 9.10926 5.24106C9.11685 5.09095 9.12639 4.94061 9.13618 4.77388C9.47801 5.067 9.86339 5.15647 10.284 5.1396C10.4952 5.13129 10.7071 5.13593 10.9185 5.1396C10.9797 5.14058 11.0009 5.12787 11 5.06137C10.9956 4.79148 11.0009 4.52159 10.9975 4.2517ZM7.56577 4.86873C7.77939 4.87093 7.95434 5.04915 7.95213 5.26257C7.94993 5.47574 7.77131 5.65054 7.55794 5.64834C7.34457 5.64614 7.16962 5.46792 7.17183 5.2545C7.17403 5.04133 7.3524 4.86653 7.56577 4.86873ZM4.43377 4.86873C4.64714 4.86629 4.82576 5.04108 4.8282 5.2545C4.83041 5.46768 4.65545 5.64614 4.44209 5.64834C4.22872 5.65078 4.0501 5.47599 4.04789 5.26257C4.04569 5.04939 4.2204 4.87093 4.43377 4.86873ZM8.35685 8.53427C8.32944 8.8115 8.35122 9.09288 8.26901 9.36546C8.08941 9.95976 7.5484 10.3856 6.92714 10.4035C6.61834 10.4123 6.30906 10.4049 5.99977 10.4049V10.4066C5.72009 10.4066 5.44017 10.4074 5.16049 10.4066C4.40612 10.404 3.81226 9.91013 3.68673 9.16622C3.65248 8.96233 3.65762 8.7516 3.64269 8.54405C3.64 8.50469 3.66398 8.48562 3.68649 8.46264C4.11249 8.02823 4.6163 7.72142 5.20918 7.58378C6.4062 7.30607 7.44392 7.60994 8.3199 8.46949C8.33825 8.48758 8.35979 8.50347 8.35685 8.53427Z" fill="black"/>
</svg>
