<svg width="12" height="12" viewBox="0 0 12 12" fill="none" xmlns="http://www.w3.org/2000/svg">
<path d="M1 4.5C1 3.39543 1.89543 2.5 3 2.5H9C10.1046 2.5 11 3.39543 11 4.5C11 4.77614 10.7761 5 10.5 5H1.5C1.22386 5 1 4.77614 1 4.5Z" fill="#222222"/>
<path fill-rule="evenodd" clip-rule="evenodd" d="M1 7C1 8.88562 1 9.82843 1.58579 10.4142C2.17157 11 3.11438 11 5 11H7C8.88562 11 9.82843 11 10.4142 10.4142C11 9.82843 11 8.88562 11 7C11 6.5286 11 6.29289 10.8536 6.14645C10.7071 6 10.4714 6 10 6H2C1.5286 6 1.29289 6 1.14645 6.14645C1 6.29289 1 6.5286 1 7ZM3.5 7.5C3.5 7.22386 3.72386 7 4 7H5C5.27614 7 5.5 7.22386 5.5 7.5C5.5 7.77614 5.27614 8 5 8H4C3.72386 8 3.5 7.77614 3.5 7.5ZM4 9C3.72386 9 3.5 9.22386 3.5 9.5C3.5 9.77614 3.72386 10 4 10H5C5.27614 10 5.5 9.77614 5.5 9.5C5.5 9.22386 5.27614 9 5 9H4ZM6.5 7.5C6.5 7.22386 6.72386 7 7 7H8C8.27614 7 8.5 7.22386 8.5 7.5C8.5 7.77614 8.27614 8 8 8H7C6.72386 8 6.5 7.77614 6.5 7.5ZM7 9C6.72386 9 6.5 9.22386 6.5 9.5C6.5 9.77614 6.72386 10 7 10H8C8.27614 10 8.5 9.77614 8.5 9.5C8.5 9.22386 8.27614 9 8 9H7Z" fill="#222222"/>
<path d="M3.5 1.5L3.5 3" stroke="#222222" stroke-linecap="round"/>
<path d="M8.5 1.5L8.5 3" stroke="#222222" stroke-linecap="round"/>
</svg>
