<svg width="34" height="34" viewBox="0 0 34 34" fill="none" xmlns="http://www.w3.org/2000/svg">
<path d="M10.4833 28.3336H24.0833C24.985 28.3336 25.8498 27.9754 26.4873 27.3379C27.125 26.7002 27.4833 25.8353 27.4833 24.9336V11.3336C27.4833 10.7325 27.2444 10.1559 26.8194 9.73091C26.3942 9.30572 25.8178 9.06704 25.2165 9.06704H22.95V6.80031C22.95 6.39542 22.7339 6.02127 22.3833 5.81883C22.0326 5.61638 21.6006 5.61638 21.25 5.81883C20.8993 6.02127 20.6833 6.39542 20.6833 6.80031V9.06704H13.8833V6.80031C13.8833 6.39542 13.6671 6.02127 13.3165 5.81883C12.9659 5.61638 12.5339 5.61638 12.1833 5.81883C11.8326 6.02127 11.6165 6.39542 11.6165 6.80031V9.06704H9.34998C8.74872 9.06704 8.17232 9.30572 7.74713 9.73091C7.32213 10.1559 7.08325 10.7325 7.08325 11.3336V24.9336C7.08325 25.8353 7.44147 26.7002 8.07916 27.3379C8.71666 27.9754 9.58147 28.3336 10.4833 28.3336ZM9.34998 17.5672C9.34998 17.2542 9.60366 17.0005 9.91652 17.0005H24.6502C24.8004 17.0005 24.9445 17.0603 25.0509 17.1665C25.1571 17.2728 25.2167 17.417 25.2167 17.5672V24.9336C25.2167 25.2343 25.0974 25.5225 24.8849 25.735C24.6724 25.9475 24.384 26.067 24.0834 26.067H10.4835C10.1829 26.067 9.89452 25.9475 9.68202 25.735C9.46952 25.5225 9.35018 25.2343 9.35018 24.9336L9.34998 17.5672Z" fill="#FF6600"/>
</svg>
