<svg width="13" height="12" viewBox="0 0 13 12" fill="none" xmlns="http://www.w3.org/2000/svg">
<path d="M1.5 4.5C1.5 3.39543 2.39543 2.5 3.5 2.5H9.5C10.6046 2.5 11.5 3.39543 11.5 4.5C11.5 4.77614 11.2761 5 11 5H2C1.72386 5 1.5 4.77614 1.5 4.5Z" fill="#222222"/>
<path fill-rule="evenodd" clip-rule="evenodd" d="M1.5 7C1.5 8.88562 1.5 9.82843 2.08579 10.4142C2.67157 11 3.61438 11 5.5 11H7.5C9.38562 11 10.3284 11 10.9142 10.4142C11.5 9.82843 11.5 8.88562 11.5 7C11.5 6.5286 11.5 6.29289 11.3536 6.14645C11.2071 6 10.9714 6 10.5 6H2.5C2.0286 6 1.79289 6 1.64645 6.14645C1.5 6.29289 1.5 6.5286 1.5 7ZM4 7.5C4 7.22386 4.22386 7 4.5 7H5.5C5.77614 7 6 7.22386 6 7.5C6 7.77614 5.77614 8 5.5 8H4.5C4.22386 8 4 7.77614 4 7.5ZM4.5 9C4.22386 9 4 9.22386 4 9.5C4 9.77614 4.22386 10 4.5 10H5.5C5.77614 10 6 9.77614 6 9.5C6 9.22386 5.77614 9 5.5 9H4.5ZM7 7.5C7 7.22386 7.22386 7 7.5 7H8.5C8.77614 7 9 7.22386 9 7.5C9 7.77614 8.77614 8 8.5 8H7.5C7.22386 8 7 7.77614 7 7.5ZM7.5 9C7.22386 9 7 9.22386 7 9.5C7 9.77614 7.22386 10 7.5 10H8.5C8.77614 10 9 9.77614 9 9.5C9 9.22386 8.77614 9 8.5 9H7.5Z" fill="#222222"/>
<path d="M4 1.5L4 3" stroke="#222222" stroke-linecap="round"/>
<path d="M9 1.5L9 3" stroke="#222222" stroke-linecap="round"/>
</svg>
