<svg width="11" height="11" viewBox="0 0 11 11" fill="none" xmlns="http://www.w3.org/2000/svg">
<path d="M5.43125 1.03125C3.00135 1.03125 1.03125 3.00135 1.03125 5.43125C1.03125 7.86115 3.00135 9.83125 5.43125 9.83125C7.86115 9.83125 9.83125 7.86115 9.83125 5.43125C9.83125 3.00135 7.86115 1.03125 5.43125 1.03125ZM6.88163 6.88592C6.77439 6.99316 6.59951 6.99261 6.49276 6.88592L5.43125 5.8206L4.37028 6.88598C4.26305 6.99267 4.08865 6.99322 3.98142 6.88598C3.87363 6.7793 3.87363 6.60435 3.98087 6.49712L5.04293 5.43119L3.98087 4.36532C3.87363 4.25747 3.87363 4.08369 3.98142 3.9759C4.08927 3.86922 4.26305 3.86922 4.37028 3.97701L5.43125 5.04178L6.49276 3.97694C6.59945 3.86915 6.7733 3.86915 6.88053 3.97529C6.98832 4.08308 6.98832 4.25692 6.88164 4.3647L5.81902 5.43118L6.88164 6.49705C6.98887 6.60435 6.98887 6.77869 6.88164 6.88592L6.88163 6.88592Z" fill="#FF6600"/>
</svg>
