<svg width="126" height="158" viewBox="0 0 126 158" fill="none" xmlns="http://www.w3.org/2000/svg">
<rect x="0.650757" width="124.699" height="124.699" rx="15" fill="#FF6600"/>
<g clip-path="url(#clip0_1057_74548)">
<path d="M66.6879 34.4752C66.6879 34.4752 66.1252 24.1455 55.7886 24.8213C45.4519 25.497 30.373 25.9636 30.373 25.9636C30.373 25.9636 24.6982 34.9418 52.9593 34.4752C52.9593 34.4752 56.4798 35.0383 53.9881 36.406C51.4964 37.7736 -3.32166 69.6959 23.1067 75.3113C49.5352 80.9267 60.8685 78.5132 69.3243 87.2822C77.7801 96.0511 77.8605 99.607 77.8605 99.607C83.0851 93.702 102.199 76.8398 96.1868 48.8917C96.1868 48.8917 85.8019 51.6753 80.9792 46.8483C77.0085 42.8741 81.8794 32.5766 81.8794 32.5766C81.8794 32.5766 71.8964 28.2323 66.6718 34.4752H66.6879Z" fill="white"/>
<path d="M97.5856 40.6216H91.2679L90.3837 43.5982H84.709L91.4929 25.5776H97.5534L104.321 43.5821H98.5019L97.6017 40.6055L97.5856 40.6216ZM96.4282 36.7279L94.4348 30.2597L92.4735 36.7279H96.4282Z" fill="white"/>
<path d="M104.996 25.1432H109.996V28.6347H104.996V25.1432ZM104.996 30.2276H109.996V43.5822H104.996V30.2276Z" fill="white"/>
</g>
<path d="M7.49805 152.211H13.9229C18.5496 152.211 21.7217 149.422 21.7217 145.139C21.7217 140.856 18.5496 138.068 13.9229 138.068H7.49805V152.211ZM10.7711 149.523V140.755H13.7613C16.5696 140.755 18.4082 142.432 18.4082 145.139C18.4082 147.846 16.5696 149.523 13.7613 149.523H10.7711ZM26.5004 152.453C29.834 152.453 31.5918 150.736 31.5918 147.24V138.068H23.3688V140.694H28.3389V147.422C28.3389 148.978 27.652 149.766 26.3387 149.766C25.3285 149.766 24.48 149.241 23.7122 148.21L21.8939 150.392C22.9243 151.726 24.6012 152.453 26.5004 152.453ZM41.1082 152.453C45.1288 152.453 47.5128 150.15 47.5128 145.988V138.068H44.2802V145.866C44.2802 148.554 43.1286 149.665 41.1284 149.665C39.1484 149.665 37.9766 148.554 37.9766 145.866V138.068H34.7035V145.988C34.7035 150.15 37.0876 152.453 41.1082 152.453ZM63.2737 152.211L60.1017 147.665C61.9402 146.877 63.0111 145.321 63.0111 143.2C63.0111 140.028 60.6472 138.068 56.869 138.068H50.7472V152.211H54.0203V148.271H56.869H57.0307L59.7582 152.211H63.2737ZM59.6976 143.2C59.6976 144.735 58.6874 145.664 56.6872 145.664H54.0203V140.735H56.6872C58.6874 140.735 59.6976 141.644 59.6976 143.2ZM75.9487 138.068L71.5846 148.17L67.2812 138.068H63.7455L69.8471 152.211H73.0797L79.2016 138.068H75.9487ZM90.4755 152.211H93.9102L87.5864 138.068H84.3537L78.0501 152.211H81.4039L82.6566 149.18H89.2229L90.4755 152.211ZM83.7072 146.695L85.9498 141.28L88.1925 146.695H83.7072ZM105.055 152.211H108.874L102.671 144.371L108.53 138.068H104.894L98.6304 144.674V138.068H95.3775V152.211H98.6304V148.634L100.53 146.654L105.055 152.211ZM112.296 152.211H115.569V140.735H120.095V138.068H107.77V140.735H112.296V152.211Z" fill="#FF6600"/>
<defs>
<clipPath id="clip0_1057_74548">
<rect width="94.6507" height="94.6507" fill="white" transform="translate(15.6747 15.0239)"/>
</clipPath>
</defs>
</svg>
