<svg width="16" height="17" viewBox="0 0 16 17" fill="none" xmlns="http://www.w3.org/2000/svg">
<path fill-rule="evenodd" clip-rule="evenodd" d="M3.36523 2.5625H10.2423L13.0862 5.4075V14.3013H3.36523V2.5625ZM8.39164 12.9765C8.22331 12.9765 8.08544 12.8398 8.08544 12.6715C8.08544 12.5032 8.2233 12.3665 8.39164 12.3665H11.4843C11.6539 12.3665 11.7905 12.5032 11.7905 12.6715C11.7905 12.8398 11.6539 12.9765 11.4843 12.9765H8.39164ZM4.96714 6.07261C4.79753 6.07261 4.66094 5.93594 4.66094 5.76642C4.66094 5.59809 4.79761 5.46142 4.96714 5.46142H7.14854C7.31687 5.46142 7.45474 5.59809 7.45474 5.76642C7.45474 5.93602 7.31688 6.07261 7.14854 6.07261H4.96714ZM4.96714 7.61957C4.79753 7.61957 4.66094 7.48171 4.66094 7.31338C4.66094 7.14505 4.79761 7.00838 4.96714 7.00838H11.4843C11.6539 7.00838 11.7905 7.14505 11.7905 7.31338C11.7905 7.48171 11.6539 7.61957 11.4843 7.61957H4.96714ZM4.96714 9.16534C4.79753 9.16534 4.66094 9.02867 4.66094 8.86034C4.66094 8.69201 4.79761 8.55534 4.96714 8.55534H11.4843C11.6539 8.55534 11.7905 8.69201 11.7905 8.86034C11.7905 9.02867 11.6539 9.16534 11.4843 9.16534H4.96714ZM4.96714 10.7123C4.79753 10.7123 4.66094 10.5756 4.66094 10.4073C4.66094 10.2377 4.79761 10.1011 4.96714 10.1011H11.4843C11.6539 10.1011 11.7905 10.2378 11.7905 10.4073C11.7905 10.5756 11.6539 10.7123 11.4843 10.7123H4.96714Z" fill="white"/>
</svg>
