<svg width="18" height="18" viewBox="0 0 18 18" fill="none" xmlns="http://www.w3.org/2000/svg">
<path d="M9 12L8.29289 12.7071L9 13.4142L9.70711 12.7071L9 12ZM10 3C10 2.44772 9.55229 2 9 2C8.44772 2 8 2.44771 8 3L10 3ZM3.79289 8.20711L8.29289 12.7071L9.70711 11.2929L5.20711 6.79289L3.79289 8.20711ZM9.70711 12.7071L14.2071 8.20711L12.7929 6.79289L8.29289 11.2929L9.70711 12.7071ZM10 12L10 3L8 3L8 12L10 12Z" fill="#FF6600"/>
<path d="M3.75 15.75L14.25 15.75" stroke="#FF6600" stroke-width="2"/>
</svg>
