<svg width="18" height="18" viewBox="0 0 18 18" fill="none" xmlns="http://www.w3.org/2000/svg">
<rect width="18" height="18" fill="white" fill-opacity="0.01"/>
<path d="M4 3.5L14 14.5" stroke="#FF6600" stroke-linecap="round" stroke-linejoin="round"/>
<path d="M10.6818 10.8496C10.1912 11.2956 9.54349 11.5284 8.88124 11.4968C8.21898 11.4652 7.59639 11.1719 7.1504 10.6813C6.70441 10.1907 6.47156 9.54307 6.50307 8.88081C6.53458 8.21855 6.82786 7.59593 7.31841 7.1499" stroke="#FF6600" stroke-linecap="round" stroke-linejoin="round"/>
<path d="M5.62465 5.28711C3.07657 6.57746 2 9.00001 2 9.00001C2 9.00001 4 13.4995 9 13.4995C10.1715 13.5089 11.3284 13.239 12.3748 12.7124" stroke="#FF6600" stroke-linecap="round" stroke-linejoin="round"/>
<path d="M14.038 11.5687C15.4006 10.3483 15.9999 9.00001 15.9999 9.00001C15.9999 9.00001 13.9999 4.49952 8.99991 4.49952C8.56687 4.49881 8.1345 4.53402 7.70728 4.60478" stroke="#FF6600" stroke-linecap="round" stroke-linejoin="round"/>
<path d="M9.47046 6.54443C10.0018 6.64647 10.4858 6.91803 10.8497 7.31839C11.2137 7.71876 11.438 8.22633 11.4891 8.76498" stroke="#FF6600" stroke-linecap="round" stroke-linejoin="round"/>
</svg>
