<svg width="59" height="58" viewBox="0 0 59 58" fill="none" xmlns="http://www.w3.org/2000/svg">
<rect x="0.5" width="58" height="58" rx="29" fill="#FFAF7A"/>
<path fill-rule="evenodd" clip-rule="evenodd" d="M30.2085 16.5V23.25L30.2085 23.3044V23.3044C30.2084 23.7285 30.2083 24.1406 30.254 24.4805C30.3055 24.8637 30.4311 25.301 30.7943 25.6642C31.1575 26.0274 31.5948 26.153 31.978 26.2045C32.3179 26.2502 32.73 26.2501 33.1541 26.25H33.1541L33.2085 26.25H39.6668V34C39.6668 37.5355 39.6668 39.3033 38.6051 40.4017C37.5434 41.5 35.8345 41.5 32.4168 41.5H27.5835C24.1658 41.5 22.457 41.5 21.3952 40.4017C20.3335 39.3033 20.3335 37.5355 20.3335 34V24C20.3335 20.4645 20.3335 18.6967 21.3952 17.5983C22.457 16.5 24.1658 16.5 27.5835 16.5H30.2085ZM32.2085 16.502V23.25C32.2085 23.7497 32.2106 24.0238 32.2362 24.214L32.2372 24.2213L32.2445 24.2223C32.4347 24.2479 32.7088 24.25 33.2085 24.25H39.6652C39.659 23.5906 39.6289 23.1935 39.4829 22.8288C39.2989 22.3694 38.9497 22.0081 38.2512 21.2855L35.0408 17.9645C34.3423 17.2419 33.9931 16.8806 33.549 16.6903C33.2026 16.5419 32.826 16.5092 32.2085 16.502Z" fill="white"/>
</svg>
