<svg width="19" height="18" viewBox="0 0 19 18" fill="none" xmlns="http://www.w3.org/2000/svg">
<path d="M16.0099 3.4435C15.6433 3.06512 15.2082 2.76497 14.7292 2.56019C14.2502 2.3554 13.7369 2.25 13.2184 2.25C12.7 2.25 12.1866 2.3554 11.7076 2.56019C11.2287 2.76497 10.7935 3.06512 10.427 3.4435L9.66631 4.22839L8.90566 3.4435C8.16532 2.67957 7.16121 2.2504 6.11421 2.2504C5.06721 2.2504 4.0631 2.67957 3.32276 3.4435C2.58242 4.20743 2.1665 5.24354 2.1665 6.3239C2.1665 7.40426 2.58242 8.44037 3.32276 9.2043L9.66631 15.75L16.0099 9.2043C16.3766 8.82611 16.6674 8.37707 16.8659 7.88284C17.0644 7.38861 17.1665 6.85888 17.1665 6.3239C17.1665 5.78893 17.0644 5.25919 16.8659 4.76496C16.6674 4.27073 16.3766 3.82169 16.0099 3.4435Z" fill="#FF6600" stroke="#FF6600" stroke-width="1.5" stroke-linecap="round" stroke-linejoin="round"/>
</svg>
