<svg width="20" height="21" viewBox="0 0 20 21" fill="none" xmlns="http://www.w3.org/2000/svg">
<path d="M7.3479 13.151L12.6512 7.84766" stroke="#FF6600" stroke-width="1.5" stroke-linecap="round" stroke-linejoin="round"/>
<path d="M11.3253 14.4771L9.11555 16.6868C8.41225 17.3899 7.45849 17.7848 6.46403 17.7847C5.46958 17.7846 4.51589 17.3896 3.8127 16.6864C3.10952 15.9832 2.71444 15.0295 2.71436 14.0351C2.71427 13.0406 3.10919 12.0868 3.81225 11.3835L6.02196 9.17383" stroke="#FF6600" stroke-width="1.5" stroke-linecap="round" stroke-linejoin="round"/>
<path d="M13.9774 11.8253L16.1871 9.61555C16.8901 8.91225 17.2851 7.95849 17.285 6.96403C17.2849 5.96958 16.8898 5.01589 16.1866 4.31271C15.4834 3.60952 14.5298 3.21444 13.5353 3.21436C12.5408 3.21427 11.5871 3.60919 10.8838 4.31225L8.67407 6.52196" stroke="#FF6600" stroke-width="1.5" stroke-linecap="round" stroke-linejoin="round"/>
</svg>
