<svg width="21" height="21" viewBox="0 0 21 21" fill="none" xmlns="http://www.w3.org/2000/svg">
<path d="M7.8479 13.151L13.1512 7.84766" stroke="white" stroke-width="1.5" stroke-linecap="round" stroke-linejoin="round"/>
<path d="M11.8253 14.4771L9.61555 16.6868C8.91225 17.3899 7.95849 17.7848 6.96403 17.7847C5.96958 17.7846 5.01589 17.3896 4.3127 16.6864C3.60952 15.9832 3.21444 15.0295 3.21436 14.0351C3.21427 13.0406 3.60919 12.0868 4.31225 11.3835L6.52196 9.17383" stroke="white" stroke-width="1.5" stroke-linecap="round" stroke-linejoin="round"/>
<path d="M14.4774 11.8253L16.6871 9.61555C17.3901 8.91225 17.7851 7.95849 17.785 6.96403C17.7849 5.96958 17.3898 5.01589 16.6866 4.31271C15.9834 3.60952 15.0298 3.21444 14.0353 3.21436C13.0408 3.21427 12.0871 3.60919 11.3838 4.31225L9.17407 6.52196" stroke="#FFFBF8" stroke-width="1.5" stroke-linecap="round" stroke-linejoin="round"/>
</svg>
