<svg width="16" height="17" viewBox="0 0 16 17" fill="none" xmlns="http://www.w3.org/2000/svg">
<path d="M2 2.5V1.5H1V2.5H2ZM7.95956 9.87377C8.35008 10.2643 8.98325 10.2643 9.37377 9.87377C9.7643 9.48325 9.7643 8.85008 9.37377 8.45956L7.95956 9.87377ZM3 7.83333V2.5H1V7.83333H3ZM2 3.5H7.33333V1.5H2V3.5ZM1.29289 3.20711L7.95956 9.87377L9.37377 8.45956L2.70711 1.79289L1.29289 3.20711Z" fill="#FF6600"/>
<path d="M2.66663 10.4993V10.4993C2.66663 10.8089 2.66663 10.9637 2.67804 11.0941C2.80493 12.5445 3.95482 13.6944 5.40516 13.8213C5.53564 13.8327 5.69042 13.8327 5.99996 13.8327H7.99996C10.1861 13.8327 11.2792 13.8327 12.054 13.2901C12.3407 13.0894 12.59 12.8401 12.7907 12.5534C13.3333 11.7786 13.3333 10.6855 13.3333 8.49935V6.49935C13.3333 6.18981 13.3333 6.03503 13.3219 5.90455C13.195 4.45421 12.0451 3.30432 10.5948 3.17743C10.4643 3.16602 10.3095 3.16602 9.99996 3.16602V3.16602" stroke="#FF6600" stroke-width="2" stroke-linecap="round"/>
</svg>
