<svg width="44" height="44" viewBox="0 0 44 44" fill="none" xmlns="http://www.w3.org/2000/svg">
<rect width="44" height="44" rx="22" fill="#FFF4EC"/>
<path d="M25.7167 17.7217C24.8719 17.7217 24.1807 18.4129 24.1807 19.2384C24.1807 20.0832 24.8719 20.7744 25.7167 20.7744C26.5615 20.7744 27.2527 20.0832 27.2527 19.2384C27.2527 18.3936 26.5615 17.7217 25.7167 17.7217Z" fill="#FF6600"/>
<path d="M28.3854 15.9551H15.6366C14.9262 15.9551 14.3311 16.5502 14.3311 17.2606V26.6494C14.3311 27.3598 14.9262 27.9549 15.6366 27.9549H28.3854C29.0957 27.9549 29.6909 27.3598 29.6909 26.6494L29.691 17.2606C29.691 16.531 29.0959 15.9551 28.3855 15.9551H28.3854ZM28.8076 24.0767L26.0237 22.1375C26.0045 22.1375 26.0045 22.1375 25.9852 22.1184C25.9661 22.1184 25.9277 22.0992 25.8892 22.0799C25.8701 22.0799 25.8316 22.0799 25.8125 22.0608H25.7357C25.7166 22.0608 25.6781 22.0608 25.6397 22.0799C25.6206 22.0799 25.6013 22.0991 25.563 22.0991C25.5438 22.1182 25.5054 22.1182 25.4862 22.1375C25.4862 22.1375 25.4671 22.1567 25.4478 22.1567L23.1629 24.2687L19.3038 20.0639C19.2846 20.0448 19.2653 20.0448 19.2462 20.0255C19.227 20.0063 19.2077 19.9871 19.1694 19.9679C19.1503 19.9679 19.1118 19.9679 19.0927 19.9488C19.0735 19.9488 19.0351 19.9296 18.9967 19.9296C18.9775 19.9296 18.9391 19.9296 18.9199 19.9488C18.9008 19.9488 18.8623 19.9488 18.8432 19.9679C18.824 19.9679 18.7856 19.9871 18.7664 20.0063C18.7473 20.0063 18.728 20.0255 18.7088 20.0448L15.2528 23.5584L15.2526 17.2608C15.2526 17.0304 15.4446 16.8384 15.675 16.8384H28.4238C28.6541 16.8384 28.8462 17.0304 28.8462 17.2608V24.0768L28.8076 24.0767Z" fill="#FF6600"/>
</svg>
