<svg width="25" height="25" viewBox="0 0 25 25" fill="none" xmlns="http://www.w3.org/2000/svg">
<path fill-rule="evenodd" clip-rule="evenodd" d="M9.97954 11.9514L8.98351 9.95935L8.98351 9.95934L8.9835 9.95934C7.87419 7.74071 7.31953 6.63139 7.82919 6.12174C8.33884 5.61209 9.44816 6.16675 11.6668 7.27606L19.4388 11.1621C20.9999 11.9426 21.7804 12.3329 21.7804 12.9509C21.7804 13.5689 20.9999 13.9592 19.4388 14.7397L19.4388 14.7398L19.4388 14.7398L11.6668 18.6258C9.44816 19.7351 8.33884 20.2897 7.82919 19.7801C7.31953 19.2704 7.87419 18.1611 8.98351 15.9425L9.97904 13.9514L13.3627 13.9514C13.915 13.9514 14.3627 13.5037 14.3627 12.9514C14.3627 12.3991 13.915 11.9514 13.3627 11.9514L9.97954 11.9514Z" fill="#FF6600"/>
</svg>
