<svg width="16" height="17" viewBox="0 0 16 17" fill="none" xmlns="http://www.w3.org/2000/svg">
<path fill-rule="evenodd" clip-rule="evenodd" d="M7.99996 1.65039C7.34252 1.65039 6.77057 2.07197 5.62666 2.91513L5.39075 3.08901C5.21054 3.22184 5.12044 3.28825 5.0237 3.34411C4.92696 3.39996 4.8244 3.44478 4.61926 3.53443L4.35072 3.65179C3.04857 4.22087 2.39749 4.5054 2.06877 5.07476C1.74005 5.64412 1.81917 6.35024 1.97742 7.76247L2.01005 8.05372C2.03498 8.2762 2.04744 8.38743 2.04744 8.49914C2.04744 8.61084 2.03498 8.72207 2.01005 8.94455L1.97742 9.2358C1.81917 10.648 1.74005 11.3542 2.06877 11.9235C2.39749 12.4929 3.04857 12.7774 4.35072 13.3465L4.61926 13.4638C4.8244 13.5535 4.92696 13.5983 5.0237 13.6542C5.12044 13.71 5.21054 13.7764 5.39075 13.9093L5.62666 14.0831C6.77057 14.9263 7.34252 15.3479 7.99996 15.3479C8.6574 15.3479 9.22935 14.9263 10.3733 14.0831L10.6092 13.9093C10.7894 13.7764 10.8795 13.71 10.9762 13.6542C11.073 13.5983 11.1755 13.5535 11.3806 13.4638L11.3807 13.4638L11.6492 13.3465C12.9514 12.7774 13.6024 12.4929 13.9311 11.9235C14.2599 11.3542 14.1807 10.648 14.0225 9.2358L13.9899 8.94455L13.9899 8.94453C13.9649 8.72207 13.9525 8.61083 13.9525 8.49914C13.9525 8.38744 13.9649 8.2762 13.9899 8.05375L13.9899 8.05372L14.0225 7.76247C14.1807 6.35024 14.2599 5.64412 13.9311 5.07476C13.6024 4.5054 12.9514 4.22087 11.6492 3.65179L11.3807 3.53443C11.1755 3.44478 11.073 3.39996 10.9762 3.34411C10.8795 3.28826 10.7894 3.22184 10.6092 3.08901L10.3733 2.91513C9.22935 2.07197 8.6574 1.65039 7.99996 1.65039ZM7.99996 11.1658C9.47272 11.1658 10.6666 9.9719 10.6666 8.49914C10.6666 7.02638 9.47272 5.83247 7.99996 5.83247C6.5272 5.83247 5.33329 7.02638 5.33329 8.49914C5.33329 9.9719 6.5272 11.1658 7.99996 11.1658Z" fill="#FF6600"/>
</svg>
