<svg width="22" height="22" viewBox="0 0 22 22" fill="none" xmlns="http://www.w3.org/2000/svg">
<path d="M5.5 13.625C7.01878 13.625 8.25 12.4497 8.25 11C8.25 9.55025 7.01878 8.375 5.5 8.375C3.98122 8.375 2.75 9.55025 2.75 11C2.75 12.4497 3.98122 13.625 5.5 13.625Z" fill="#FF6600" stroke="#FF6600" stroke-linecap="round" stroke-linejoin="round"/>
<path d="M15.125 19.5312C16.6438 19.5312 17.875 18.356 17.875 16.9062C17.875 15.4565 16.6438 14.2812 15.125 14.2812C13.6062 14.2812 12.375 15.4565 12.375 16.9062C12.375 18.356 13.6062 19.5312 15.125 19.5312Z" fill="#FF6600" stroke="#FF6600" stroke-linecap="round" stroke-linejoin="round"/>
<path d="M15.125 7.71875C16.6438 7.71875 17.875 6.5435 17.875 5.09375C17.875 3.644 16.6438 2.46875 15.125 2.46875C13.6062 2.46875 12.375 3.644 12.375 5.09375C12.375 6.5435 13.6062 7.71875 15.125 7.71875Z" fill="#FF6600" stroke="#FF6600" stroke-linecap="round" stroke-linejoin="round"/>
<path d="M12.8121 6.5127L7.81299 9.58031" stroke="#FF6600" stroke-width="1.5" stroke-linecap="round" stroke-linejoin="round"/>
<path d="M7.81299 12.4189L12.8121 15.4866" stroke="#FF6600" stroke-width="1.5" stroke-linecap="round" stroke-linejoin="round"/>
</svg>
