<svg width="60" height="67" viewBox="0 0 60 67" fill="none" xmlns="http://www.w3.org/2000/svg">
<rect width="60" height="67" rx="8" fill="#FF6600"/>
<path d="M42.182 26H38.182C37.6515 26 37.1428 26.2107 36.7678 26.5858C36.3927 26.9609 36.182 27.4696 36.182 28V33C36.182 33.5304 36.3927 34.0391 36.7678 34.4142C37.1428 34.7893 37.6515 35 38.182 35H40.182C40.7124 35 41.2211 34.7893 41.5962 34.4142C41.9713 34.0391 42.182 33.5304 42.182 33V26ZM42.182 26C42.182 24.4165 41.8686 22.8486 41.2598 21.3868C40.651 19.925 39.759 18.5981 38.635 17.4826C37.5111 16.3672 36.1775 15.4852 34.7111 14.8875C33.2447 14.2899 31.6745 13.9883 30.091 14.0003C28.5075 13.9883 26.9373 14.2899 25.4709 14.8875C24.0045 15.4852 22.6709 16.3672 21.5469 17.4826C20.423 18.5981 19.5309 19.925 18.9222 21.3868C18.3134 22.8486 18 24.4165 18 26V33C18 33.5304 18.2107 34.0391 18.5858 34.4142C18.9609 34.7893 19.4696 35 20 35H22C22.5304 35 23.0391 34.7893 23.4142 34.4142C23.7893 34.0391 24 33.5304 24 33V28C24 27.4696 23.7893 26.9609 23.4142 26.5858C23.0391 26.2107 22.5304 26 22 26H18" stroke="#FFFBF8" stroke-width="2" stroke-linecap="round" stroke-linejoin="round"/>
<path d="M42.182 33V36C42.182 37.0609 41.7605 38.0783 41.0104 38.8284C40.2603 39.5786 39.2428 40 38.182 40H31" stroke="#FFFBF8" stroke-width="2" stroke-linecap="round" stroke-linejoin="round"/>
<path d="M15.5246 51.1C15.5246 48.52 11.7646 49.64 11.7646 47.84C11.7646 47.09 12.3546 46.7 13.1046 46.72C13.9546 46.73 14.3946 47.26 14.4546 47.73H15.4546C15.3446 46.67 14.4746 45.94 13.1446 45.94C11.7646 45.94 10.8346 46.72 10.8346 47.87C10.8346 50.46 14.6046 49.26 14.6046 51.14C14.6046 51.8 14.0846 52.3 13.2046 52.3C12.2346 52.3 11.8246 51.72 11.7646 51.14H10.7946C10.8146 52.29 11.8046 53.07 13.2046 53.07C14.7146 53.07 15.5246 52.09 15.5246 51.1ZM21.7238 47.52H20.8138V50.53C20.8138 51.71 20.1838 52.29 19.2438 52.29C18.3238 52.29 17.7138 51.72 17.7138 50.61V47.52H16.8138V50.73C16.8138 52.3 17.8038 53.08 19.0638 53.08C19.7938 53.08 20.4638 52.76 20.8138 52.19V53H21.7238V47.52ZM24.1702 48.53V47.52H23.2602V55.6H24.1702V51.99C24.5102 52.55 25.2202 53.09 26.2202 53.09C27.6902 53.09 28.8202 51.94 28.8202 50.24C28.8202 48.53 27.6902 47.43 26.2202 47.43C25.2202 47.43 24.5002 47.95 24.1702 48.53ZM27.8902 50.24C27.8902 51.53 27.0402 52.29 26.0302 52.29C25.0402 52.29 24.1702 51.54 24.1702 50.25C24.1702 48.98 25.0402 48.22 26.0302 48.22C27.0402 48.22 27.8902 48.95 27.8902 50.24ZM30.928 48.53V47.52H30.018V55.6H30.928V51.99C31.268 52.55 31.978 53.09 32.978 53.09C34.448 53.09 35.578 51.94 35.578 50.24C35.578 48.53 34.448 47.43 32.978 47.43C31.978 47.43 31.258 47.95 30.928 48.53ZM34.648 50.24C34.648 51.53 33.798 52.29 32.788 52.29C31.798 52.29 30.928 51.54 30.928 50.25C30.928 48.98 31.798 48.22 32.788 48.22C33.798 48.22 34.648 48.95 34.648 50.24ZM41.9759 50.25C41.9759 48.52 40.7659 47.43 39.2059 47.43C37.6559 47.43 36.4359 48.52 36.4359 50.25C36.4359 51.99 37.6159 53.09 39.1659 53.09C40.7259 53.09 41.9759 51.99 41.9759 50.25ZM37.3659 50.25C37.3659 48.87 38.2359 48.22 39.1959 48.22C40.1359 48.22 41.0459 48.87 41.0459 50.25C41.0459 51.64 40.1159 52.29 39.1659 52.29C38.2159 52.29 37.3659 51.64 37.3659 50.25ZM44.0823 50.02C44.0823 48.75 44.7423 48.36 45.6123 48.36H45.8523V47.42C44.9823 47.42 44.3923 47.8 44.0823 48.41V47.52H43.1723V53H44.0823V50.02ZM47.1028 51.5C47.1028 52.6 47.6528 53 48.6228 53H49.4428V52.23H48.7728C48.2128 52.23 48.0128 52.04 48.0128 51.5V48.27H49.4428V47.52H48.0128V46.14H47.1028V47.52H46.3928V48.27H47.1028V51.5Z" fill="white"/>
</svg>
