<svg width="16" height="17" viewBox="0 0 16 17" fill="none" xmlns="http://www.w3.org/2000/svg">
<path d="M15.36 11.2802V12.8542C15.36 13.5075 14.8087 14.0348 14.1257 14.0348V14.9438C14.1257 15.1878 13.8171 15.3137 13.6361 15.1366L12.48 14.0348H10.8343C10.1513 14.0348 9.59998 13.5075 9.59998 12.8542V11.2802C9.59998 10.6269 10.1513 10.0996 10.8343 10.0996H14.1257C14.8087 10.0996 15.36 10.6269 15.36 11.2802V11.2802Z" fill="#FF6600"/>
<path d="M7.99583 1.7793C7.16423 1.7793 6.37043 1.9305 5.63543 2.2077C6.21083 2.2497 6.71903 2.5227 7.07183 2.9343C7.23563 2.8251 7.40363 2.7411 7.57583 2.6907V8.0793H4.14443L3.30443 8.9193H4.22843C4.26203 9.9315 4.41323 10.8765 4.66103 11.7123C4.26623 11.8887 3.89663 12.0987 3.54803 12.3381C2.82983 11.5023 2.33843 10.4649 2.17883 9.3225C1.70003 9.2217 1.33043 8.8185 1.28003 8.3271C1.28003 8.3817 1.28003 8.4405 1.28003 8.4993C1.28003 12.2037 4.29563 15.2193 8.00003 15.2193C8.83163 15.2193 9.62543 15.0681 10.3604 14.7909C9.78503 14.7489 9.27683 14.4759 8.92403 14.0643C8.76023 14.1735 8.59223 14.2575 8.42003 14.3079V8.9193H13.88C14.1698 8.9193 14.4428 8.9781 14.6948 9.0831C14.7116 8.8899 14.72 8.6967 14.72 8.4993C14.7158 4.7949 11.7002 1.7793 7.99583 1.7793ZM5.32043 13.7325C4.90043 13.5141 4.50563 13.2495 4.15283 12.9387C4.27463 12.8589 4.40483 12.7833 4.53923 12.7119C4.66943 12.6363 4.80803 12.5691 4.94663 12.5061C5.00123 12.6447 5.06003 12.7749 5.12303 12.9051C5.18603 13.0311 5.24903 13.1571 5.31623 13.2747C5.38343 13.3923 5.45483 13.5057 5.52623 13.6191C5.59763 13.7283 5.67323 13.8333 5.75303 13.9299C5.60603 13.8711 5.46323 13.8039 5.32043 13.7325V13.7325ZM7.57583 14.3079C7.48343 14.2827 7.39523 14.2449 7.30703 14.2029C7.12643 14.1147 6.95423 13.9929 6.79043 13.8375C6.54263 13.6107 6.31583 13.3167 6.11003 12.9681C5.97143 12.7371 5.84543 12.4809 5.73203 12.1995C5.87483 12.1575 6.02183 12.1155 6.17303 12.0777C6.32423 12.0441 6.47543 12.0105 6.63083 11.9853C6.78203 11.9559 6.94163 11.9349 7.09703 11.9181C7.25663 11.8971 7.41623 11.8845 7.57583 11.8761V14.3079V14.3079ZM7.57583 11.0361C7.20623 11.0529 6.84503 11.0949 6.49223 11.1537C6.31163 11.1873 6.13943 11.2209 5.96723 11.2629C5.79083 11.3049 5.62283 11.3553 5.45483 11.4057C5.23643 10.6581 5.10203 9.8139 5.06843 8.9193H7.57583V11.0361V11.0361ZM8.41583 2.6907C8.50823 2.7201 8.59643 2.7537 8.68463 2.7999C8.77283 2.8461 8.86103 2.8965 8.94923 2.9553C9.03323 3.0183 9.11723 3.0855 9.19703 3.1611C9.28103 3.2367 9.36083 3.3207 9.44063 3.4089C9.51623 3.5013 9.59183 3.5979 9.66743 3.7029C9.73883 3.8079 9.81023 3.9171 9.88163 4.0347C10.016 4.2657 10.1462 4.5219 10.2596 4.7991C9.96983 4.8915 9.66743 4.9671 9.36083 5.0175C9.05423 5.0721 8.73503 5.1057 8.41583 5.1225V2.6907V2.6907ZM8.41583 8.0793V5.9625C8.60063 5.9541 8.78123 5.9415 8.96183 5.9247C9.14243 5.9037 9.32303 5.8785 9.49943 5.8491C9.67583 5.8155 9.85223 5.7819 10.0244 5.7399C10.1966 5.6979 10.3688 5.6475 10.5368 5.5929C10.5914 5.7819 10.6418 5.9751 10.6838 6.1725C10.7258 6.3699 10.7678 6.5757 10.7972 6.7815C10.8308 6.9915 10.856 7.2015 10.877 7.4199C10.898 7.6383 10.9148 7.8567 10.9232 8.0793H8.41583V8.0793ZM10.8644 4.0977C10.8056 3.9717 10.7384 3.8457 10.6712 3.7281C10.604 3.6063 10.5368 3.4929 10.4612 3.3837C10.3898 3.2745 10.3142 3.1695 10.2386 3.0687C10.6796 3.2535 11.0912 3.4887 11.4692 3.7659C11.5952 3.8583 11.7212 3.9591 11.8388 4.0599C11.7128 4.1439 11.5826 4.2195 11.4482 4.2909C11.318 4.3623 11.1836 4.4295 11.045 4.4925C10.9862 4.3581 10.9274 4.2237 10.8644 4.0977V4.0977ZM11.7632 8.0793C11.7548 7.8273 11.738 7.5795 11.717 7.3359C11.6918 7.0923 11.6624 6.8529 11.6246 6.6177C11.5532 6.1515 11.4524 5.7063 11.3306 5.2863C11.528 5.1981 11.717 5.1015 11.9018 5.0007C12.0866 4.8957 12.2672 4.7823 12.4394 4.6605C12.5402 4.7781 12.6368 4.8999 12.7292 5.0217C12.8174 5.1477 12.9056 5.2737 12.9854 5.4081C13.0694 5.5383 13.145 5.6727 13.2164 5.8113C13.2878 5.9499 13.355 6.0885 13.4138 6.2313C13.4726 6.3783 13.5272 6.5253 13.5776 6.6723C13.628 6.8235 13.67 6.9747 13.7078 7.1301C13.7456 7.2813 13.775 7.4409 13.8002 7.6005C13.8254 7.7559 13.8422 7.9197 13.8548 8.0793H11.7632V8.0793Z" fill="#FF6600"/>
<path d="M6.40002 4.38835V6.15875C6.40002 6.89346 5.8487 7.48655 5.16573 7.48655H3.52001L2.3639 8.73026C2.18287 8.925 1.8743 8.78337 1.8743 8.50896V7.48655C1.19133 7.48655 0.640015 6.89346 0.640015 6.15875V4.38835C0.640015 3.65363 1.19133 3.06055 1.8743 3.06055H5.16573C5.8487 3.06055 6.40002 3.65363 6.40002 4.38835Z" fill="#FF6600"/>
</svg>
