<svg width="49" height="48" viewBox="0 0 49 48" fill="none" xmlns="http://www.w3.org/2000/svg">
<path d="M24.5 15V25.5" stroke="#FF6600" stroke-width="2" stroke-linecap="round" stroke-linejoin="round"/>
<path d="M31.3345 6H17.6655C17.4685 6 17.2734 6.0388 17.0915 6.11418C16.9095 6.18956 16.7441 6.30005 16.6048 6.43934L6.93934 16.1048C6.80005 16.2441 6.68956 16.4095 6.61418 16.5915C6.5388 16.7734 6.5 16.9685 6.5 17.1655V30.8345C6.5 31.0315 6.5388 31.2266 6.61418 31.4086C6.68956 31.5905 6.80005 31.7559 6.93934 31.8952L16.6048 41.5607C16.7441 41.6999 16.9095 41.8104 17.0915 41.8858C17.2734 41.9612 17.4685 42 17.6655 42H31.3345C31.5315 42 31.7266 41.9612 31.9086 41.8858C32.0905 41.8104 32.2559 41.6999 32.3952 41.5607L42.0607 31.8952C42.1999 31.7559 42.3104 31.5905 42.3858 31.4086C42.4612 31.2266 42.5 31.0315 42.5 30.8345V17.1655C42.5 16.9685 42.4612 16.7734 42.3858 16.5915C42.3104 16.4095 42.1999 16.2441 42.0607 16.1048L32.3952 6.43934C32.2559 6.30005 32.0905 6.18956 31.9086 6.11418C31.7266 6.0388 31.5315 6 31.3345 6Z" stroke="#FF6600" stroke-width="2" stroke-linecap="round" stroke-linejoin="round"/>
<path d="M24.5 34.125C25.5355 34.125 26.375 33.2855 26.375 32.25C26.375 31.2145 25.5355 30.375 24.5 30.375C23.4645 30.375 22.625 31.2145 22.625 32.25C22.625 33.2855 23.4645 34.125 24.5 34.125Z" fill="#FF6600"/>
</svg>
