<svg width="18" height="18" viewBox="0 0 18 18" fill="none" xmlns="http://www.w3.org/2000/svg">
<path d="M7.25008 12.75C6.86601 12.7456 6.54449 13.0603 6.54008 13.444C6.53568 13.8277 6.85016 14.1494 7.23466 14.1538C7.61873 14.1582 7.94025 13.8436 7.94466 13.4598C7.94906 13.0761 7.63458 12.7544 7.25008 12.75Z" fill="#FF6600"/>
<path d="M10.761 12.75C10.3769 12.7478 10.0571 13.0638 10.0549 13.4479C10.0527 13.8316 10.369 14.1516 10.753 14.1538C11.1371 14.156 11.4569 13.84 11.4591 13.4558C11.4613 13.0721 11.145 12.7522 10.761 12.75Z" fill="#FF6600"/>
<path d="M16.4963 6.37755C16.4886 5.78276 16.286 5.26571 15.8709 4.83337C15.709 4.66469 15.5178 4.53597 15.3126 4.4102C15.3592 4.36803 15.3941 4.33502 15.4304 4.30312C15.8811 3.90782 16.1909 3.42341 16.3664 2.84952C16.5014 2.40801 16.5011 1.95587 16.497 1.50226H15.6187C15.538 1.63354 15.578 1.77875 15.5772 1.91663C15.5743 2.47512 15.4124 2.97676 15.0392 3.39554C14.6549 3.82714 14.1829 4.11757 13.5901 4.11904C10.5298 4.126 7.4695 4.12234 4.40955 4.12197C4.33138 4.12197 4.25283 4.12307 4.17612 4.10583C3.42921 3.93679 2.89775 3.50445 2.59164 2.80185C2.4485 2.47328 2.4151 2.12492 2.42318 1.77032C2.42501 1.68011 2.44557 1.5833 2.38097 1.50226C2.1145 1.50226 1.8484 1.50519 1.58231 1.50006C1.51441 1.49896 1.49862 1.51253 1.50009 1.58183C1.5056 1.82826 1.50229 2.07505 1.50229 2.32184C1.52578 2.6042 1.59001 2.87665 1.69535 3.14031C1.8785 3.59722 2.15891 3.98519 2.52338 4.31302C2.60633 4.38783 2.59788 4.42523 2.50502 4.4817C2.27783 4.61995 2.08844 4.8044 1.92695 5.01415C1.69462 5.31668 1.54817 5.65771 1.50229 6.03908V7.7072C1.94163 7.7072 2.3806 7.7061 2.81994 7.70757C3.15687 7.70904 3.47729 7.63826 3.78266 7.49818C3.96251 7.41568 4.12327 7.30126 4.29614 7.16779C4.30091 7.22352 4.30458 7.25653 4.30605 7.28953C4.34716 8.09334 4.38753 8.89678 4.42901 9.70059C4.49727 11.0156 4.55637 12.3309 4.63711 13.6452C4.73144 15.1787 6.00504 16.4292 7.5418 16.4776C8.51224 16.508 9.48487 16.5069 10.4553 16.4776C11.9032 16.4343 13.1328 15.3126 13.3372 13.8799C13.4187 13.3093 13.4147 12.7317 13.4459 12.1575C13.5241 10.7259 13.5916 9.29355 13.6639 7.86158C13.6753 7.63643 13.6896 7.41091 13.7043 7.16082C14.217 7.60049 14.7951 7.73471 15.426 7.7094C15.7428 7.69694 16.0606 7.7039 16.3777 7.7094C16.4695 7.71087 16.5014 7.6918 16.5 7.59206C16.4933 7.18722 16.5014 6.78238 16.4963 6.37755ZM11.3487 7.3031C11.6691 7.3064 11.9315 7.57372 11.9282 7.89385C11.9249 8.21362 11.657 8.47581 11.3369 8.47251C11.0169 8.46921 10.7544 8.20188 10.7577 7.88175C10.761 7.56199 11.0286 7.2998 11.3487 7.3031ZM6.65065 7.3031C6.9707 7.29943 7.23864 7.56162 7.24231 7.88175C7.24561 8.20152 6.98318 8.46921 6.66313 8.47251C6.34308 8.47617 6.07514 8.21398 6.07184 7.89385C6.06854 7.57409 6.3306 7.3064 6.65065 7.3031ZM12.5353 12.8014C12.4942 13.2172 12.5268 13.6393 12.4035 14.0482C12.1341 14.9396 11.3226 15.5784 10.3907 15.6052C9.92751 15.6184 9.46358 15.6074 8.99966 15.6074V15.61C8.58014 15.61 8.16025 15.6111 7.74074 15.61C6.60918 15.6059 5.71839 14.8652 5.5301 13.7493C5.47872 13.4435 5.48643 13.1274 5.46404 12.8161C5.46 12.757 5.49597 12.7284 5.52974 12.694C6.16874 12.0423 6.92446 11.5821 7.81378 11.3757C9.6093 10.9591 11.1659 11.4149 12.4799 12.7042C12.5074 12.7314 12.5397 12.7552 12.5353 12.8014Z" fill="#FF6600"/>
</svg>
