<svg width="24" height="24" viewBox="0 0 24 24" fill="none" xmlns="http://www.w3.org/2000/svg">
<path d="M8.98965 10.0001C8.4428 10.0057 7.99441 10.4634 8.00005 11.0107C8.0057 11.558 8.4635 12.0056 9.01035 11.9999C9.5572 11.9943 10.0056 11.5366 9.99995 10.9893C9.9943 10.442 9.5365 9.99441 8.98965 10.0001Z" fill="#FFAF7A"/>
<path d="M14.5 10.9951L14.5 10.9951C14.5028 10.7237 14.7343 10.4972 15.0049 10.5C15.276 10.5028 15.5028 10.7346 15.5 11.0049L15.5 11.0049C15.4972 11.2763 15.2657 11.5028 14.9951 11.5C14.724 11.4972 14.4972 11.2654 14.5 10.9951Z" fill="#FFAF7A" stroke="#FFAF7A"/>
<path d="M10.0052 18.5L10.0052 18.5C10.2768 18.5031 10.5031 18.7352 10.5 19.0055C10.4969 19.2766 10.265 19.5031 9.99476 19.5L9.99475 19.5C9.72323 19.4969 9.49693 19.2648 9.50003 18.9945C9.50314 18.7234 9.73501 18.4969 10.0052 18.5Z" fill="#FFAF7A" stroke="#FFAF7A"/>
<path d="M14.0056 18C13.4586 17.9969 13.0032 18.447 13 18.9944C12.9969 19.5411 13.4473 19.9968 13.9944 20C14.5414 20.0031 14.9968 19.553 15 19.0056C15.0031 18.4589 14.5527 18.0032 14.0056 18Z" fill="#FFAF7A"/>
<path d="M22.9945 8.15391C22.9832 7.28153 22.6861 6.52318 22.0772 5.88906C21.8398 5.64165 21.5594 5.45287 21.2584 5.26893C21.3268 5.20708 21.378 5.15813 21.4312 5.11188C22.0923 4.53209 22.5466 3.8216 22.8039 2.97988C23.002 2.33232 23.0015 1.66916 22.9956 1.00385H21.7069C21.5884 1.1964 21.6471 1.40938 21.646 1.61161C21.6417 2.43074 21.4043 3.16651 20.8569 3.78073C20.2933 4.41376 19.6004 4.83973 18.7311 4.84135C14.2426 4.85157 9.75417 4.84619 5.26626 4.84619C5.1516 4.84619 5.03694 4.8478 4.92443 4.82252C3.82897 4.57458 3.04949 3.94046 2.60054 2.90996C2.3906 2.42806 2.34161 1.91764 2.35345 1.39701C2.35668 1.26417 2.38629 1.12272 2.29155 1.00385C1.90181 1.00331 1.51099 1.00762 1.12072 1.00009C1.02113 0.998474 0.99798 1.01837 1.00013 1.12003C1.00821 1.48146 1.00336 1.84342 1.00336 2.20539C1.03782 2.61953 1.13202 3.01914 1.28652 3.40585C1.55513 4.076 1.9664 4.64504 2.50041 5.12586C2.62207 5.23558 2.61023 5.29044 2.47403 5.37273C2.14028 5.5755 1.86251 5.84603 1.62619 6.15422C1.28544 6.59794 1.07065 7.09813 1.00336 7.65748V10.1047C1.64772 10.1047 2.29208 10.1025 2.93591 10.1052C3.43008 10.1073 3.90002 10.0035 4.3479 9.79755C4.61167 9.67654 4.84745 9.50873 5.101 9.31296C5.108 9.39471 5.11338 9.44311 5.11553 9.49152C5.17582 10.6699 5.23504 11.8489 5.29587 13.0273C5.39546 14.956 5.48212 16.8852 5.60109 18.8128C5.73944 21.0621 7.60738 22.8961 9.8613 22.9671C11.2846 23.0118 12.7111 23.0101 14.1344 22.9671C16.2581 22.9037 18.0614 21.2579 18.3618 19.1565C18.4813 18.3202 18.4754 17.4731 18.5211 16.6303C18.6358 14.5305 18.7348 12.4297 18.8409 10.3295C18.8576 9.9987 18.8786 9.66847 18.8996 9.30166C19.6516 9.94653 20.4994 10.1434 21.4253 10.1063C21.8899 10.0874 22.3561 10.0982 22.8212 10.1063C22.9557 10.1084 23.0026 10.0805 22.9999 9.93416C22.9907 9.34039 23.002 8.74661 22.9945 8.15283V8.15391ZM4.91097 6.80662C4.92443 7.9307 4.07175 8.8929 2.72381 8.81599C2.29208 8.81599 2.30124 8.81599 2.28993 8.36797C2.27163 7.65587 2.47888 7.04703 3.05918 6.5974C3.42415 6.31503 3.8435 6.19993 4.29837 6.19832C4.49701 6.19778 4.76025 6.1327 4.87598 6.23328C4.9971 6.33762 4.90882 6.60869 4.91151 6.80662H4.91097ZM17.185 17.5753C17.1253 18.1852 17.1727 18.8048 16.9918 19.4039C16.5972 20.7114 15.4065 21.6483 14.0397 21.6876C13.3603 21.707 12.6799 21.6908 12 21.6908V21.6946C11.3842 21.6946 10.7689 21.6962 10.1531 21.6946C8.49344 21.6892 7.18696 20.6022 6.91134 18.9661C6.83544 18.517 6.84728 18.0539 6.81445 17.5973C6.80799 17.5107 6.86128 17.4688 6.91081 17.4182C7.84801 16.4625 8.95639 15.7875 10.2613 15.4847C12.8941 14.8737 15.1771 15.5428 17.1043 17.4338C17.1447 17.4736 17.192 17.508 17.1856 17.5758L17.185 17.5753ZM17.7594 6.42905C17.6561 8.25018 17.5645 10.0713 17.4709 11.893C17.4041 13.1919 17.3395 14.4913 17.2717 15.837C15.7014 14.6005 13.9476 13.9712 11.9892 13.9733C10.0384 13.9755 8.29158 14.6053 6.73262 15.8327C6.71432 15.5342 6.69548 15.2674 6.68202 15.0006C6.54744 12.3362 6.4134 9.6717 6.27883 7.00723C6.2686 6.80016 6.26698 6.59148 6.24007 6.38656C6.21746 6.21445 6.28475 6.18326 6.43763 6.19348C6.62981 6.20639 6.82414 6.19671 7.01739 6.19671C10.5175 6.19671 14.0181 6.19832 17.5183 6.19294C17.7018 6.19294 17.7713 6.21983 17.7594 6.42852V6.42905ZM21.2525 8.81814C20.5393 8.83535 19.932 8.6256 19.4836 8.04473C19.2209 7.70481 19.1057 7.3138 19.089 6.89052C19.0815 6.69797 19.0874 6.50435 19.0874 6.3118C19.0874 6.25587 19.0745 6.19617 19.1666 6.19671C19.6801 6.19832 20.198 6.16175 20.6717 6.42636C21.3736 6.81899 21.6982 7.42782 21.7074 8.21953C21.7079 8.26954 21.7074 8.31956 21.7074 8.36958C21.7074 8.81599 21.7074 8.80739 21.2525 8.81814Z" fill="#FFAF7A"/>
</svg>
