<svg width="42" height="42" viewBox="0 0 42 42" fill="none" xmlns="http://www.w3.org/2000/svg">
<g clip-path="url(#clip0_149_13489)">
<path d="M42 21C42 9.40178 32.5982 0 21 0C9.40178 0 0 9.40178 0 21C0 31.4813 7.67822 40.1707 17.7178 41.7449V27.0698H12.3853V21H17.7178V16.3738C17.7178 11.1098 20.8538 8.204 25.6511 8.204C27.9502 8.204 30.352 8.61467 30.352 8.61467V13.7822H27.7044C25.0973 13.7822 24.2822 15.4 24.2822 17.0613V21H30.1062L29.176 27.0698H24.2822V41.7449C34.3218 40.1707 42 31.4813 42 21Z" fill="#4676ED"/>
<path d="M29.173 27.0699L30.1032 21.0001H24.2792V17.0614C24.2792 15.4001 25.0912 13.7823 27.7014 13.7823H30.349V8.61477C30.349 8.61477 27.9472 8.2041 25.6481 8.2041C20.8508 8.2041 17.7148 11.1099 17.7148 16.3739V21.0001H12.3823V27.0699H17.7148V41.745C18.785 41.913 19.8801 42.0001 20.997 42.0001C22.1139 42.0001 23.209 41.913 24.2792 41.745V27.0699H29.173Z" fill="white"/>
</g>
<defs>
<clipPath id="clip0_149_13489">
<rect width="42" height="42" fill="white"/>
</clipPath>
</defs>
</svg>
