<svg width="44" height="44" viewBox="0 0 44 44" fill="none" xmlns="http://www.w3.org/2000/svg">
<g clip-path="url(#clip0_149_13505)">
<path d="M22 44C34.1503 44 44 34.1503 44 22C44 9.84974 34.1503 0 22 0C9.84974 0 0 9.84974 0 22C0 34.1503 9.84974 44 22 44Z" fill="#68B82B"/>
<path d="M36.9207 20.8621C36.9207 14.1546 30.1936 8.69531 21.9281 8.69531C13.6627 8.69531 6.93555 14.1546 6.93555 20.8621C6.93555 26.8755 12.2677 31.9143 19.4739 32.866C19.9628 32.9703 20.6277 33.1886 20.7939 33.6058C20.9438 33.9839 20.8917 34.5771 20.8428 34.9617C20.8428 34.9617 20.6668 36.0209 20.6277 36.2458C20.5625 36.6239 20.3278 37.7288 21.9249 37.0541C23.5252 36.3795 30.5587 31.9697 33.7038 28.3486C35.8778 25.9661 36.9175 23.5478 36.9175 20.8621" fill="white"/>
<path d="M18.8807 17.6191H17.828C17.6683 17.6191 17.5347 17.7495 17.5347 17.9092V24.4408C17.5347 24.6005 17.665 24.7308 17.828 24.7308H18.8807C19.0404 24.7308 19.1741 24.6005 19.1741 24.4408V17.9092C19.1741 17.7495 19.0437 17.6191 18.8807 17.6191Z" fill="#68B82B"/>
<path d="M26.1198 17.6191H25.0671C24.9041 17.6191 24.7738 17.7495 24.7738 17.9092V21.791L21.7785 17.7495C21.7785 17.7495 21.7622 17.73 21.7557 17.7202C21.7557 17.7202 21.7427 17.7071 21.7394 17.7006C21.7394 17.7006 21.7361 17.6974 21.7329 17.6941C21.7264 17.6908 21.7231 17.6843 21.7166 17.6811C21.7166 17.6811 21.7101 17.6778 21.7101 17.6745C21.7035 17.6713 21.7003 17.668 21.6938 17.6648C21.6938 17.6648 21.6872 17.6615 21.684 17.6583C21.6775 17.6583 21.6742 17.6517 21.6677 17.6485C21.6677 17.6485 21.6612 17.6485 21.6579 17.6452C21.6514 17.6452 21.6481 17.6387 21.6416 17.6387C21.6384 17.6387 21.6351 17.6387 21.6318 17.6354C21.6253 17.6354 21.6221 17.6322 21.6155 17.6289C21.6123 17.6289 21.609 17.6289 21.6058 17.6289C21.5992 17.6289 21.596 17.6289 21.5895 17.6257C21.5862 17.6257 21.5797 17.6257 21.5764 17.6257C21.5699 17.6257 21.5667 17.6257 21.5601 17.6257C21.5536 17.6257 21.5504 17.6257 21.5438 17.6257C21.5406 17.6257 21.5373 17.6257 21.5341 17.6257H20.4813C20.3216 17.6257 20.188 17.756 20.188 17.9157V24.4473C20.188 24.607 20.3184 24.7374 20.4813 24.7374H21.5341C21.697 24.7374 21.8274 24.607 21.8274 24.4473V20.5688L24.8259 24.6168C24.8455 24.6461 24.8715 24.6689 24.9009 24.6885C24.9074 24.6917 24.9139 24.695 24.9204 24.6983C24.9204 24.6983 24.927 24.6983 24.9302 24.7015C24.9335 24.7015 24.94 24.7048 24.9432 24.708C24.9465 24.708 24.953 24.7113 24.9563 24.7145C24.9563 24.7145 24.9628 24.7145 24.9661 24.7178C24.9726 24.7178 24.9791 24.7211 24.9856 24.7243C24.9856 24.7243 24.9856 24.7243 24.9889 24.7243C25.0117 24.7308 25.0378 24.7341 25.0638 24.7341H26.1166C26.2795 24.7341 26.4099 24.6037 26.4099 24.444V17.9125C26.4099 17.7528 26.2795 17.6224 26.1166 17.6224" fill="#68B82B"/>
<path d="M16.3484 23.1012H13.49V17.9125C13.49 17.7528 13.3596 17.6191 13.1967 17.6191H12.1439C11.9842 17.6191 11.8506 17.7495 11.8506 17.9125V24.444C11.8506 24.5223 11.8832 24.594 11.9321 24.6461C11.9321 24.6461 11.9321 24.6461 11.9353 24.6494C11.9353 24.6494 11.9353 24.6494 11.9386 24.6526C11.9907 24.7015 12.0624 24.7341 12.1407 24.7341H16.3418C16.5015 24.7341 16.6319 24.6037 16.6319 24.4408V23.388C16.6319 23.2283 16.5015 23.0947 16.3418 23.0947" fill="#68B82B"/>
<path d="M31.9278 19.2556C32.0875 19.2556 32.2179 19.1252 32.2179 18.9623V17.9095C32.2179 17.7466 32.0875 17.6162 31.9278 17.6162H27.7266C27.6484 17.6162 27.5767 17.6488 27.5245 17.6977C27.5245 17.6977 27.5245 17.6977 27.5213 17.6977C27.5213 17.6977 27.518 17.701 27.518 17.7042C27.4691 17.7564 27.4365 17.8281 27.4365 17.9063V24.4378C27.4365 24.5161 27.4691 24.5878 27.518 24.6399C27.518 24.6399 27.518 24.6399 27.5213 24.6432C27.5213 24.6432 27.5213 24.6432 27.5245 24.6464C27.5767 24.6953 27.6484 24.7279 27.7266 24.7279H31.9278C32.0875 24.7279 32.2179 24.5975 32.2179 24.4346V23.3818C32.2179 23.2221 32.0875 23.0885 31.9278 23.0885H29.0694V21.9836H31.9278C32.0875 21.9836 32.2179 21.8532 32.2179 21.6903V20.6375C32.2179 20.4746 32.0875 20.3442 31.9278 20.3442H29.0694V19.2393H31.9278V19.2556Z" fill="#68B82B"/>
</g>
<defs>
<clipPath id="clip0_149_13505">
<rect width="44" height="44" fill="white"/>
</clipPath>
</defs>
</svg>
