<svg width="42" height="42" viewBox="0 0 42 42" fill="none" xmlns="http://www.w3.org/2000/svg">
<g clip-path="url(#clip0_149_13497)">
<path d="M21 42C32.598 42 42 32.598 42 21C42 9.40202 32.598 0 21 0C9.40202 0 0 9.40202 0 21C0 32.598 9.40202 42 21 42Z" fill="url(#paint0_linear_149_13497)"/>
<path d="M14.2145 22.5334L16.7065 29.4307C16.7065 29.4307 17.0176 30.0747 17.3505 30.0747C17.6834 30.0747 22.6456 24.9134 22.6456 24.9134L28.1616 14.2578L14.3016 20.7538L14.2114 22.5334H14.2145Z" fill="#C8DAEA"/>
<path d="M17.5186 24.3037L17.0395 29.3873C17.0395 29.3873 16.8404 30.9459 18.396 29.3873C19.9546 27.8286 21.4449 26.6277 21.4449 26.6277L17.5186 24.3037Z" fill="#A9C6D8"/>
<path d="M14.2612 22.7795L9.13716 21.1089C9.13716 21.1089 8.52427 20.86 8.72338 20.2969C8.76383 20.1818 8.84472 20.0822 9.0905 19.9111C10.2261 19.1209 30.1092 11.9715 30.1092 11.9715C30.1092 11.9715 30.6692 11.7818 31.0021 11.9093C31.1545 11.9653 31.2509 12.0307 31.3318 12.2702C31.3629 12.3573 31.3785 12.5409 31.3754 12.7213C31.3754 12.852 31.3567 12.9764 31.3443 13.1662C31.2229 15.12 27.5985 29.7018 27.5985 29.7018C27.5985 29.7018 27.3807 30.5542 26.6061 30.5853C26.3229 30.5947 25.9776 30.5387 25.5669 30.184C24.0425 28.8711 18.7723 25.3307 17.6087 24.5529C17.5434 24.5093 17.5247 24.4533 17.5123 24.3973C17.4967 24.3164 17.5838 24.2138 17.5838 24.2138C17.5838 24.2138 26.7585 16.0595 27.0012 15.204C27.0198 15.1387 26.9483 15.1044 26.8518 15.1324C26.2421 15.3564 15.6798 22.0267 14.5132 22.764C14.4447 22.8075 14.2549 22.7795 14.2549 22.7795H14.2612Z" fill="white"/>
</g>
<defs>
<linearGradient id="paint0_linear_149_13497" x1="21" y1="42" x2="21" y2="0" gradientUnits="userSpaceOnUse">
<stop stop-color="#1D93D2"/>
<stop offset="1" stop-color="#38B0E3"/>
</linearGradient>
<clipPath id="clip0_149_13497">
<rect width="42" height="42" fill="white"/>
</clipPath>
</defs>
</svg>
