<svg width="42" height="42" viewBox="0 0 42 42" fill="none" xmlns="http://www.w3.org/2000/svg">
<g clip-path="url(#clip0_149_13502)">
<path d="M21 42C32.598 42 42 32.598 42 21C42 9.40202 32.598 0 21 0C9.40202 0 0 9.40202 0 21C0 32.598 9.40202 42 21 42Z" fill="#5A99EC"/>
<path d="M16.7565 33.0957C27.0138 33.0957 32.6232 24.5993 32.6232 17.2291C32.6232 16.9864 32.6169 16.7468 32.6076 16.5073C33.6965 15.7202 34.6423 14.7371 35.3889 13.6202C34.3903 14.0651 33.3138 14.3637 32.1876 14.4975C33.3387 13.8068 34.2223 12.7148 34.6392 11.4144C33.5627 12.0522 32.368 12.5188 31.0987 12.7677C30.0814 11.6851 28.6316 11.0068 27.0294 11.0068C23.9494 11.0068 21.4512 13.5051 21.4512 16.5819C21.4512 17.0206 21.5009 17.4437 21.5974 17.8544C16.9618 17.6211 12.852 15.4028 10.1049 12.0273C9.62582 12.8517 9.34893 13.8099 9.34893 14.8304C9.34893 16.7655 10.332 18.4735 11.8316 19.4722C10.9169 19.4442 10.0583 19.1922 9.30538 18.7753C9.30538 18.7971 9.30538 18.8219 9.30538 18.8468C9.30538 21.5473 11.228 23.8028 13.7792 24.3131C13.3094 24.4406 12.8178 24.5091 12.3107 24.5091C11.9529 24.5091 11.6014 24.4748 11.2623 24.4095C11.9716 26.6246 14.0312 28.2362 16.4703 28.2828C14.56 29.7793 12.1583 30.6691 9.54493 30.6691C9.09382 30.6691 8.65205 30.6442 8.21338 30.5913C10.6805 32.1717 13.6112 33.0957 16.7596 33.0957" fill="white"/>
</g>
<defs>
<clipPath id="clip0_149_13502">
<rect width="42" height="42" fill="white"/>
</clipPath>
</defs>
</svg>
