<svg width="42" height="42" viewBox="0 0 42 42" fill="none" xmlns="http://www.w3.org/2000/svg">
<g clip-path="url(#clip0_149_13492)">
<path d="M21 42C32.598 42 42 32.598 42 21C42 9.40202 32.598 0 21 0C9.40202 0 0 9.40202 0 21C0 32.598 9.40202 42 21 42Z" fill="url(#paint0_linear_149_13492)"/>
<path fill-rule="evenodd" clip-rule="evenodd" d="M31.1018 11.1564C28.588 8.63951 25.2404 7.25195 21.6782 7.25195C14.336 7.25195 8.35956 13.2253 8.35645 20.5675C8.35645 22.9133 8.96934 25.2062 10.136 27.2253L8.24756 34.1257L15.3098 32.2746C17.2542 33.3355 19.4476 33.8955 21.6751 33.8955H21.6813C29.0236 33.8955 35 27.9222 35.0031 20.5768C35.0031 17.0177 33.6187 13.6733 31.1049 11.1564H31.1018ZM21.6782 31.6462H21.6751C19.6871 31.6462 17.7396 31.1111 16.0409 30.1031L15.6364 29.8635L11.4458 30.9617L12.5658 26.8768L12.3013 26.4568C11.1938 24.696 10.6089 22.6582 10.6089 20.5675C10.6089 14.4635 15.5773 9.49818 21.6876 9.49818C24.6462 9.49818 27.4244 10.6524 29.5151 12.7431C31.6058 14.8368 32.7569 17.6151 32.7538 20.5737C32.7538 26.6777 27.7853 31.6431 21.6813 31.6431L21.6782 31.6462ZM27.7511 23.3551C27.4182 23.1871 25.7818 22.3844 25.4769 22.2724C25.172 22.1604 24.9511 22.1044 24.7271 22.4404C24.5062 22.7733 23.8684 23.5231 23.6724 23.744C23.4796 23.9648 23.2836 23.9928 22.9507 23.828C22.6178 23.66 21.5444 23.3115 20.2751 22.176C19.2858 21.2924 18.6169 20.2035 18.424 19.8706C18.2311 19.5377 18.4022 19.3573 18.5702 19.1924C18.7196 19.0431 18.9031 18.8035 19.068 18.6106C19.2329 18.4177 19.2889 18.2777 19.4009 18.0568C19.5129 17.836 19.4569 17.64 19.3729 17.4751C19.2889 17.3071 18.6231 15.6706 18.3462 15.0048C18.0756 14.3546 17.8018 14.4448 17.5964 14.4324C17.4036 14.4231 17.1796 14.42 16.9587 14.42C16.7378 14.42 16.3769 14.504 16.072 14.8368C15.7671 15.1697 14.9084 15.9755 14.9084 17.612C14.9084 19.2484 16.1 20.832 16.268 21.0528C16.4329 21.2737 18.6138 24.6368 21.9551 26.0773C22.7484 26.4195 23.3707 26.6248 23.8529 26.7773C24.6493 27.0293 25.3773 26.9951 25.9498 26.908C26.5907 26.8115 27.9191 26.1022 28.196 25.3244C28.4729 24.5466 28.4729 23.8808 28.3889 23.7408C28.3049 23.6008 28.084 23.52 27.7511 23.352V23.3551Z" fill="white"/>
</g>
<defs>
<linearGradient id="paint0_linear_149_13492" x1="21" y1="38.948" x2="21" y2="-3.052" gradientUnits="userSpaceOnUse">
<stop stop-color="#78CD51"/>
<stop offset="1" stop-color="#A0FC84"/>
</linearGradient>
<clipPath id="clip0_149_13492">
<rect width="42" height="42" fill="white"/>
</clipPath>
</defs>
</svg>
